<svg width="425" height="427" viewBox="0 0 425 427" fill="none" xmlns="http://www.w3.org/2000/svg">
<path d="M40.8706 359.098L37.1276 344.336C30.491 341.523 23.7011 339.087 16.7901 337.039L16.3177 343.9L14.4016 336.341C5.83083 333.891 0 332.813 0 332.813C0 332.813 7.8741 362.763 24.3949 385.659L43.6431 389.041L28.6897 391.197C30.7679 393.697 33.0012 396.065 35.3764 398.285C59.4067 420.59 86.1724 430.824 95.1586 421.143C104.145 411.461 91.9491 385.531 67.9188 363.228C60.4692 356.313 51.111 350.764 41.7431 346.396L40.8706 359.098Z" fill="#F2F2F2"/>
<path d="M76.4711 343.063L80.8977 328.492C76.6708 322.653 72.1178 317.058 67.2607 311.733L63.3099 317.362L65.5763 309.901C59.5047 303.376 55.0706 299.439 55.0706 299.439C55.0706 299.439 46.3321 329.148 48.6373 357.288L63.367 370.131L49.4492 364.248C49.9362 367.463 50.6249 370.644 51.5113 373.773C60.5528 405.289 78.1755 427.885 90.8722 424.242C103.569 420.599 106.533 392.098 97.491 360.582C94.6883 350.812 89.545 341.224 83.7838 332.643L76.4711 343.063Z" fill="#F2F2F2"/>
<path d="M296.564 100.984H294.229V37.0214C294.229 32.1597 293.271 27.3456 291.411 22.854C289.55 18.3623 286.823 14.2811 283.386 10.8433C279.948 7.40557 275.867 4.67859 271.375 2.81809C266.883 0.957585 262.069 0 257.208 0H121.689C111.87 0 102.454 3.90046 95.5108 10.8433C88.5679 17.7862 84.6675 27.2027 84.6675 37.0214V387.933C84.6675 392.795 85.6251 397.609 87.4856 402.1C89.3461 406.592 92.073 410.673 95.5108 414.111C98.9486 417.549 103.03 420.276 107.521 422.136C112.013 423.997 116.827 424.954 121.689 424.954H257.208C267.026 424.954 276.443 421.054 283.385 414.111C290.328 407.168 294.228 397.752 294.228 387.933V146.514H296.563L296.564 100.984Z" fill="#E6E6E6"/>
<path d="M258.703 9.6286H241.015C241.828 11.6231 242.139 13.7872 241.919 15.93C241.699 18.0728 240.955 20.1287 239.754 21.9164C238.552 23.7042 236.929 25.169 235.028 26.1818C233.127 27.1946 231.006 27.7243 228.852 27.7242H151.215C149.061 27.7241 146.94 27.1943 145.039 26.1814C143.138 25.1685 141.515 23.7037 140.314 21.916C139.112 20.1282 138.369 18.0724 138.149 15.9297C137.929 13.787 138.24 11.6231 139.053 9.6286H122.532C115.199 9.6286 108.167 12.5414 102.982 17.7263C97.7971 22.9112 94.8843 29.9434 94.8843 37.2759V387.678C94.8843 395.01 97.7971 402.042 102.982 407.227C108.167 412.412 115.199 415.325 122.532 415.325H258.703C266.035 415.325 273.068 412.412 278.252 407.227C283.437 402.042 286.35 395.01 286.35 387.678V37.2753C286.35 29.9429 283.437 22.9108 278.252 17.7261C273.067 12.5413 266.035 9.6286 258.703 9.6286Z" fill="white"/>
<path d="M173.264 149.21C173.264 146.761 173.909 144.355 175.134 142.234C176.359 140.113 178.121 138.352 180.243 137.129C178.122 135.904 175.716 135.259 173.267 135.259C170.818 135.258 168.412 135.903 166.291 137.127C164.17 138.352 162.408 140.113 161.184 142.234C159.959 144.355 159.314 146.76 159.314 149.21C159.314 151.659 159.959 154.065 161.184 156.185C162.408 158.306 164.17 160.067 166.291 161.292C168.412 162.516 170.818 163.161 173.267 163.16C175.716 163.16 178.122 162.515 180.243 161.29C178.121 160.067 176.359 158.307 175.134 156.186C173.909 154.065 173.264 151.659 173.264 149.21Z" fill="#CCCCCC"/>
<path d="M190.802 149.21C190.802 146.761 191.447 144.355 192.672 142.234C193.897 140.113 195.659 138.352 197.781 137.129C195.66 135.904 193.254 135.259 190.805 135.259C188.356 135.258 185.95 135.903 183.829 137.127C181.708 138.352 179.946 140.113 178.722 142.234C177.497 144.355 176.853 146.76 176.853 149.21C176.853 151.659 177.497 154.065 178.722 156.185C179.946 158.306 181.708 160.067 183.829 161.292C185.95 162.516 188.356 163.161 190.805 163.16C193.254 163.16 195.66 162.515 197.781 161.29C195.659 160.067 193.897 158.307 192.672 156.186C191.447 154.065 190.802 151.659 190.802 149.21Z" fill="#CCCCCC"/>
<path d="M207.942 163.161C215.647 163.161 221.893 156.915 221.893 149.21C221.893 141.505 215.647 135.259 207.942 135.259C200.237 135.259 193.991 141.505 193.991 149.21C193.991 156.915 200.237 163.161 207.942 163.161Z" fill="#004F95"/>
<path d="M231.256 192.784H149.947C149.173 192.783 148.431 192.475 147.884 191.928C147.336 191.38 147.028 190.638 147.027 189.864V108.555C147.028 107.781 147.336 107.039 147.884 106.492C148.431 105.945 149.173 105.637 149.947 105.636H231.256C232.03 105.637 232.772 105.945 233.319 106.492C233.867 107.039 234.175 107.781 234.175 108.555V189.864C234.175 190.638 233.867 191.38 233.319 191.928C232.772 192.475 232.03 192.783 231.256 192.784ZM149.947 106.804C149.483 106.805 149.037 106.989 148.709 107.318C148.38 107.646 148.196 108.092 148.195 108.556V189.865C148.196 190.329 148.38 190.775 148.709 191.103C149.037 191.431 149.483 191.616 149.947 191.617H231.256C231.72 191.616 232.166 191.431 232.494 191.103C232.822 190.775 233.007 190.329 233.008 189.865V108.556C233.007 108.092 232.822 107.646 232.494 107.318C232.166 106.989 231.72 106.805 231.256 106.804H149.947Z" fill="#CCCCCC"/>
<path d="M249.411 255.111H124.708V256.279H249.411V255.111Z" fill="#CCCCCC"/>
<path d="M128.646 247.819C130.821 247.819 132.584 246.056 132.584 243.881C132.584 241.706 130.821 239.942 128.646 239.942C126.471 239.942 124.708 241.706 124.708 243.881C124.708 246.056 126.471 247.819 128.646 247.819Z" fill="#004F95"/>
<path d="M249.411 294.491H124.708V295.659H249.411V294.491Z" fill="#CCCCCC"/>
<path d="M128.646 287.199C130.821 287.199 132.584 285.436 132.584 283.261C132.584 281.086 130.821 279.323 128.646 279.323C126.471 279.323 124.708 281.086 124.708 283.261C124.708 285.436 126.471 287.199 128.646 287.199Z" fill="#004F95"/>
<path d="M247.126 339.335H207.717C207.036 339.334 206.383 339.063 205.902 338.582C205.42 338.101 205.15 337.448 205.149 336.767V322.954C205.15 322.274 205.42 321.621 205.902 321.14C206.383 320.658 207.036 320.388 207.717 320.387H247.126C247.807 320.388 248.46 320.658 248.941 321.14C249.422 321.621 249.693 322.274 249.694 322.954V336.767C249.693 337.448 249.422 338.101 248.941 338.582C248.46 339.063 247.807 339.334 247.126 339.335Z" fill="#004F95"/>
<path d="M141.495 247.819C143.67 247.819 145.434 246.056 145.434 243.881C145.434 241.706 143.67 239.942 141.495 239.942C139.32 239.942 137.557 241.706 137.557 243.881C137.557 246.056 139.32 247.819 141.495 247.819Z" fill="#004F95"/>
<path d="M154.338 247.819C156.513 247.819 158.276 246.056 158.276 243.881C158.276 241.706 156.513 239.942 154.338 239.942C152.163 239.942 150.4 241.706 150.4 243.881C150.4 246.056 152.163 247.819 154.338 247.819Z" fill="#004F95"/>
<path d="M141.495 287.199C143.67 287.199 145.434 285.436 145.434 283.261C145.434 281.086 143.67 279.323 141.495 279.323C139.32 279.323 137.557 281.086 137.557 283.261C137.557 285.436 139.32 287.199 141.495 287.199Z" fill="#004F95"/>
<path d="M154.338 287.199C156.513 287.199 158.276 285.436 158.276 283.261C158.276 281.086 156.513 279.323 154.338 279.323C152.163 279.323 150.4 281.086 150.4 283.261C150.4 285.436 152.163 287.199 154.338 287.199Z" fill="#004F95"/>
<path d="M423.413 426.273H13.7392C12.8622 426.273 12.1519 425.962 12.1519 425.578C12.1519 425.195 12.8622 424.883 13.7392 424.883H423.413C424.29 424.883 425.001 425.194 425.001 425.578C425.001 425.962 424.29 426.273 423.413 426.273Z" fill="#3F3D56"/>
<path d="M322.199 279.281C322.479 279.409 322.748 279.559 323.004 279.73L348.596 268.807L349.51 262.065L359.735 262.003L359.131 277.465L325.353 286.398C325.282 286.632 325.196 286.863 325.097 287.087C324.609 288.129 323.824 289.004 322.84 289.601C321.856 290.198 320.718 290.491 319.568 290.444C318.418 290.396 317.308 290.01 316.377 289.333C315.446 288.657 314.735 287.72 314.335 286.642C313.934 285.563 313.861 284.389 314.125 283.269C314.389 282.149 314.979 281.132 315.819 280.346C316.659 279.559 317.713 279.038 318.848 278.849C319.983 278.66 321.149 278.81 322.199 279.281Z" fill="#FFB8B8"/>
<path d="M363.45 419.394H356.454L353.126 392.412L363.451 392.413L363.45 419.394Z" fill="#FFB8B8"/>
<path d="M351.462 417.395H364.952V425.89H342.967C342.967 423.637 343.862 421.476 345.455 419.883C347.048 418.29 349.209 417.395 351.462 417.395Z" fill="#2F2E41"/>
<path d="M390.661 417.417L383.7 418.103L377.742 391.578L388.017 390.566L390.661 417.417Z" fill="#FFB8B8"/>
<path d="M378.528 416.604L391.954 415.281L392.786 423.735L370.907 425.89C370.798 424.779 370.908 423.659 371.232 422.591C371.555 421.524 372.086 420.531 372.794 419.668C373.502 418.806 374.372 418.092 375.356 417.566C376.34 417.04 377.417 416.713 378.528 416.604Z" fill="#2F2E41"/>
<path d="M365.402 233.447C373.142 233.447 379.416 227.173 379.416 219.433C379.416 211.693 373.142 205.419 365.402 205.419C357.662 205.419 351.388 211.693 351.388 219.433C351.388 227.173 357.662 233.447 365.402 233.447Z" fill="#FFB8B8"/>
<path d="M354.891 413.937C354.29 413.939 353.708 413.728 353.247 413.342C352.786 412.956 352.476 412.42 352.372 411.828C348.751 391.728 336.916 326.008 336.633 324.188C336.627 324.146 336.624 324.104 336.624 324.061V319.161C336.624 318.983 336.679 318.809 336.783 318.664L338.347 316.474C338.421 316.368 338.519 316.282 338.632 316.22C338.745 316.158 338.871 316.123 338.999 316.117C347.913 315.699 377.106 314.475 378.516 316.236C379.932 318.007 379.432 323.373 379.317 324.43L379.323 324.541L392.438 408.414C392.541 409.083 392.376 409.766 391.979 410.314C391.582 410.862 390.986 411.232 390.318 411.344L382.127 412.694C381.517 412.792 380.892 412.667 380.365 412.344C379.839 412.02 379.447 411.518 379.259 410.929C376.726 402.833 368.23 375.599 365.286 365.061C365.268 364.994 365.226 364.937 365.168 364.899C365.11 364.861 365.04 364.845 364.972 364.855C364.903 364.865 364.84 364.899 364.795 364.951C364.75 365.004 364.726 365.071 364.727 365.14C364.874 375.186 365.229 400.815 365.352 409.667L365.365 410.621C365.371 411.266 365.134 411.89 364.701 412.369C364.269 412.849 363.673 413.148 363.03 413.209L355.131 413.927C355.051 413.934 354.97 413.937 354.891 413.937Z" fill="#2F2E41"/>
<path d="M356.506 238.958C354.06 240.412 352.597 243.084 351.757 245.802C350.202 250.836 349.266 256.04 348.97 261.299L348.082 277.048L337.096 318.797C346.618 326.855 352.111 325.023 364.929 318.433C377.748 311.842 379.212 320.63 379.212 320.63L381.776 285.106L385.438 246.288C384.616 245.298 383.685 244.404 382.664 243.621C379.279 240.989 375.341 239.159 371.146 238.27C366.951 237.381 362.609 237.456 358.447 238.488L356.506 238.958Z" fill="#004F95"/>
<path d="M352.94 287.713C353.236 287.824 353.522 287.959 353.797 288.115L379.101 275.449L379.521 268.588L389.959 267.868L390.519 283.509L356.702 294.692C356.426 295.877 355.796 296.949 354.896 297.766C353.996 298.584 352.868 299.108 351.662 299.269C350.457 299.43 349.231 299.22 348.148 298.667C347.065 298.114 346.175 297.245 345.598 296.174C345.021 295.104 344.784 293.883 344.918 292.674C345.051 291.465 345.55 290.326 346.347 289.408C347.144 288.489 348.202 287.835 349.379 287.532C350.557 287.23 351.799 287.293 352.94 287.713Z" fill="#FFB8B8"/>
<path d="M385.257 246.465C391.482 248.663 392.579 272.469 392.579 272.469C385.255 268.441 376.465 275.033 376.465 275.033C376.465 275.033 374.634 268.807 372.436 260.75C371.773 258.484 371.694 256.086 372.206 253.781C372.718 251.476 373.805 249.338 375.366 247.566C375.366 247.566 379.031 244.267 385.257 246.465Z" fill="#004F95"/>
<path d="M377.966 223.139C376.22 221.742 373.838 224.282 373.838 224.282L372.44 211.71C372.44 211.71 363.71 212.755 358.122 211.361C352.535 209.966 351.662 216.425 351.662 216.425C351.374 213.816 351.315 211.186 351.487 208.567C351.836 205.424 356.376 202.281 364.408 200.186C372.44 198.09 376.631 207.17 376.631 207.17C382.219 209.964 379.712 224.536 377.966 223.139Z" fill="#2F2E41"/>
</svg>
