<svg width="100" height="100" viewBox="0 0 100 100" fill="none" xmlns="http://www.w3.org/2000/svg">
<path d="M66.6667 100H55.5556V88.8889H66.6667V100ZM55.5556 61.1111H44.4444V88.8889H55.5556V61.1111ZM100 50H88.8889V72.2222H100V50ZM88.8889 38.8889H77.7778V50H88.8889V38.8889ZM22.2222 50H11.1111V61.1111H22.2222V50ZM11.1111 38.8889H0V50H11.1111V38.8889ZM50 11.1111H61.1111V0H50V11.1111ZM8.33333 8.33333V25H25V8.33333H8.33333ZM33.3333 33.3333H0V0H33.3333V33.3333ZM8.33333 75V91.6667H25V75H8.33333ZM33.3333 100H0V66.6667H33.3333V100ZM75 8.33333V25H91.6667V8.33333H75ZM100 33.3333H66.6667V0H100V33.3333ZM88.8889 88.8889V72.2222H66.6667V83.3333H77.7778V100H100V88.8889H88.8889ZM77.7778 50H55.5556V61.1111H77.7778V50ZM55.5556 38.8889H22.2222V50H33.3333V61.1111H44.4444V50H55.5556V38.8889ZM61.1111 33.3333V22.2222H50V11.1111H38.8889V33.3333H61.1111ZM20.8333 12.5H12.5V20.8333H20.8333V12.5ZM20.8333 79.1667H12.5V87.5H20.8333V79.1667ZM87.5 12.5H79.1667V20.8333H87.5V12.5Z" fill="#212427"/>
</svg>
