<svg width="75" height="45" viewBox="0 0 75 45" fill="none" xmlns="http://www.w3.org/2000/svg">
<path d="M11.0485 24.2159L19.4913 0.0971069H22.0971L11.0485 31.5804L0 0.0971069H2.60399L11.0485 24.2159Z" fill="white"/>
<path d="M35.1646 28.5558C33.2184 30.5434 30.8822 31.5372 28.1578 31.5372C25.4334 31.5372 23.2463 30.5883 21.3306 28.6888C19.4149 26.7911 18.457 24.5357 18.457 21.9245C18.457 19.3134 19.4149 16.9861 21.3306 15.1171C23.2463 13.2482 25.5214 12.3137 28.1578 12.3137C30.7941 12.3137 33.2184 13.3075 35.1646 15.295L37.8585 12.4466V31.3575L35.1646 28.554V28.5558ZM28.1578 14.7613C26.1216 14.7613 24.4072 15.4514 23.0145 16.8298C21.6217 18.2099 20.9262 19.9082 20.9262 21.9245C20.9262 23.9409 21.6235 25.6391 23.0145 27.0193C24.4072 28.3995 26.1198 29.0878 28.1578 29.0878C30.1957 29.0878 31.8706 28.3905 33.2777 26.9959C34.6848 25.6014 35.3893 23.9103 35.3893 21.9227C35.3893 19.9351 34.6848 18.2441 33.2777 16.8495C31.8706 15.455 30.1633 14.7577 28.1578 14.7577V14.7613Z" fill="white"/>
<path d="M32.6057 39.7555C33.5042 40.7439 34.6562 41.2381 36.0633 41.2381C37.3213 41.2381 38.4139 40.8032 39.3412 39.9352C40.2685 39.0672 40.734 37.944 40.734 36.5674V12.2689H43.205V36.5674C43.205 38.5442 42.5077 40.2281 41.1167 41.6208C39.724 43.0136 38.0401 43.7091 36.0633 43.7091C33.9068 43.7091 32.1259 42.9147 30.7188 41.3279L32.6057 39.7555Z" fill="white"/>
<path d="M55.6884 12.7629L54.5652 14.9644C54.2057 14.8458 53.7708 14.7847 53.2623 14.7847C51.8839 14.7847 50.7535 15.2483 49.8712 16.1774C48.987 17.1065 48.5467 18.2135 48.5467 19.5002V31.5372H46.0757V12.8079L48.1423 14.4702C49.5189 13.0325 51.2262 12.3137 53.2623 12.3137C54.1608 12.3137 54.9695 12.4628 55.6866 12.7629H55.6884Z" fill="white"/>
<path d="M72.3062 28.5559C70.36 30.5435 68.0238 31.5373 65.2994 31.5373C62.575 31.5373 60.3879 30.5885 58.4722 28.6889C56.5565 26.7912 55.5986 24.5358 55.5986 21.9247C55.5986 19.3135 56.5565 16.9862 58.4722 15.1173C60.3879 13.2483 62.663 12.3138 65.2994 12.3138C67.9357 12.3138 70.36 13.3076 72.3062 15.2952L75.0001 12.2689V31.5373L72.3062 28.5559ZM65.2994 14.7614C63.2632 14.7614 61.5488 15.4515 60.1561 16.8299C58.7633 18.2101 58.0678 19.9083 58.0678 21.9247C58.0678 23.941 58.7651 25.6411 60.1561 27.0194C61.5488 28.3996 63.2614 29.0879 65.2994 29.0879C67.3373 29.0879 69.0122 28.3906 70.4193 26.9961C71.8264 25.6015 72.5309 23.9105 72.5309 21.9229C72.5309 19.9353 71.8264 18.2442 70.4193 16.8497C69.0122 15.4551 67.3049 14.7578 65.2994 14.7578V14.7614Z" fill="white"/>
<path d="M46.0757 39.3456H49.3158L50.2018 36.6032L51.1579 40.6826L52.2864 37.8378L53.1814 39.0077L54.425 33.8878L55.7602 41.6171L56.7828 36.6931L57.7784 39.3456H74.8795" stroke="white" stroke-miterlimit="10"/>
<path d="M41.9593 0V0.197681L41.8605 0.384579L41.7832 0.370202L41.9593 0Z" fill="white"/>
<path d="M41.7832 0.370178L41.9593 0.51754V0.463627L41.8623 0.384555L41.7832 0.370178Z" fill="white"/>
<path d="M41.9592 0.264282L41.8945 0.375702L41.9592 0.418833V0.264282Z" fill="white"/>
<path d="M41.8239 0.458374C41.8239 0.458374 41.867 0.754895 41.8454 1.064C41.8454 1.064 41.8454 1.42701 41.7466 1.64805H41.8346L41.9335 1.51686V0.546432L41.8239 0.458374Z" fill="white"/>
<path d="M41.9601 1.54187L41.8721 1.65149H41.9601V1.54187Z" fill="white"/>
<path d="M41.9601 1.7952L41.8721 1.68378H41.9601V1.7952Z" fill="white"/>
<path d="M41.7402 1.68378H41.8283L41.9379 1.82754V2.54279H41.751C41.751 2.54279 41.8175 2.35589 41.8067 1.99288C41.8067 1.99288 41.7959 1.7952 41.7402 1.68557V1.68378Z" fill="white"/>
<path d="M41.4322 0.0125122C41.4322 0.0125122 41.5095 0.217381 41.4322 0.375526C41.4322 0.375526 41.3495 0.522888 41.1572 0.594771L41.2129 0.682829C41.2129 0.682829 41.576 0.495931 41.5975 0.287468C41.5975 0.287468 41.6299 0.0897874 41.4322 0.0125122Z" fill="white"/>
<path d="M41.1235 0.749436C41.1235 0.749436 41.2116 0.693726 41.1558 0.639813C41.1558 0.639813 41.057 0.562538 40.9366 0.639813C40.9366 0.639813 40.8701 0.695523 40.9474 0.749436C40.9474 0.749436 40.9905 0.826711 40.915 0.781784C40.915 0.781784 40.8054 0.693726 40.6616 0.792566C40.6616 0.792566 40.5179 0.902189 40.6185 1.02439C40.6185 1.02439 40.6509 1.05315 40.7174 1.04596C40.7174 1.04596 40.7533 1.09448 40.685 1.08909C40.685 1.08909 40.4765 1.02259 40.3436 1.2652C40.3436 1.2652 40.2339 1.47367 40.4981 1.54016C40.4981 1.54016 40.5646 1.5761 40.4981 1.58329C40.4981 1.58329 40.1908 1.5168 40.1567 1.8259C40.1567 1.8259 40.1243 2.04514 40.3759 2.09007C40.3759 2.09007 40.4424 2.12242 40.3759 2.1332C40.3759 2.1332 40.0129 2.12242 40.0237 2.54114C40.0237 2.54114 40.0345 2.82688 40.2986 2.88259C40.2986 2.88259 40.552 2.91494 40.6185 2.65076C40.6185 2.65076 40.322 2.73882 40.322 2.49621C40.322 2.49621 40.322 2.36503 40.5197 2.35245C40.5197 2.35245 40.6509 2.34166 40.7838 2.56091L40.8503 2.68131L40.9815 2.63818C40.9815 2.63818 40.6616 2.25361 40.685 1.76839C40.685 1.76839 40.6527 1.2077 41.1253 0.745842L41.1235 0.749436Z" fill="white"/>
<path d="M41.6181 0.341309C41.6181 0.341309 41.5624 0.517424 41.3647 0.627047C41.3647 0.627047 40.9568 0.79238 40.7932 1.36386C40.7932 1.36386 40.5291 1.9587 41.0125 2.61823L41.1562 2.59666C41.1562 2.59666 40.8921 2.35406 40.8921 1.92455C40.8921 1.92455 40.8813 1.44113 41.2551 1.44113C41.2551 1.44113 41.4204 1.43035 41.4869 1.62803C41.4869 1.62803 41.53 1.75922 41.4761 1.88142C41.4761 1.88142 41.6738 1.82571 41.6846 1.59568C41.6846 1.59568 41.6954 1.29916 41.4312 1.23267C41.4312 1.23267 41.1239 1.22189 41.1562 1.02421C41.1562 1.02421 41.1455 0.914582 41.3755 0.716902C41.3755 0.716902 41.5947 0.551569 41.6181 0.343106V0.341309Z" fill="white"/>
<path d="M40.936 1.9823C40.936 1.9823 40.936 2.3561 41.211 2.5987L41.3763 2.57714C41.3763 2.57714 41.0241 2.36868 40.936 1.9823Z" fill="white"/>
<path d="M41.9623 2.56445C41.9623 2.56445 41.2901 2.58602 40.8067 2.719C40.8067 2.719 40.6755 2.77471 40.7187 2.89512C40.7187 2.89512 40.7402 3.00474 40.884 2.98318C40.884 2.98318 41.4231 2.83941 41.9641 2.83941V2.56445H41.9623Z" fill="white"/>
<path d="M41.8174 2.88434L41.6862 2.96161L41.5981 2.89512C41.5981 2.89512 41.7186 2.88434 41.8174 2.88434Z" fill="white"/>
<path d="M41.4436 3.0712C41.4436 3.0712 41.4651 2.98314 41.5208 2.96157C41.5208 2.96157 41.5532 2.97236 41.6089 3.02807L41.6754 2.97236C41.6754 2.97236 41.5981 2.90586 41.5101 2.89508C41.5101 2.89508 41.4328 2.91665 41.3896 3.01549L41.4454 3.0712H41.4436Z" fill="white"/>
<path d="M41.431 2.90601L41.3645 3.00485L41.2656 2.93835C41.2656 2.93835 41.3537 2.91679 41.431 2.90601Z" fill="white"/>
<path d="M41.5422 3.00465C41.5422 3.00465 41.5207 2.99387 41.4991 3.01543C41.4991 3.01543 41.4775 3.04778 41.4775 3.10349C41.4775 3.10349 41.4775 3.12505 41.4991 3.14662L41.5548 3.22389C41.5548 3.22389 41.5332 3.18076 41.5656 3.11427C41.5656 3.11427 41.5979 3.08192 41.5872 3.04778C41.5872 3.04778 41.5764 3.02621 41.544 3.00465H41.5422Z" fill="white"/>
<path d="M40.8931 3.01547C40.8931 3.01547 41.0476 2.95976 41.213 2.94897C41.213 2.94897 41.576 3.08016 41.6425 3.62109L41.5544 3.63187C41.5544 3.63187 41.4771 3.31199 41.301 3.17002C41.301 3.17002 41.1572 3.03883 40.9056 3.04961L40.8949 3.01726L40.8931 3.01547Z" fill="white"/>
<path d="M40.7392 3.22574C40.7392 3.22574 40.75 3.08197 40.9818 3.08197C40.9818 3.08197 41.2244 3.10354 41.3556 3.27965C41.3556 3.27965 41.4652 3.4342 41.521 3.64266L41.4545 3.65345C41.4545 3.65345 41.4221 3.54382 41.3664 3.47733C41.3664 3.47733 41.3233 3.44498 41.3341 3.4989C41.3341 3.4989 41.3898 3.58695 41.4221 3.66423L41.3556 3.68579C41.3556 3.68579 41.2568 3.47733 41.1022 3.36591L41.1454 3.32278C41.1454 3.32278 41.1561 3.29043 41.1238 3.30122C41.1238 3.30122 41.0681 3.40006 40.9153 3.38927C40.9153 3.38927 40.7284 3.37849 40.7392 3.22394V3.22574Z" fill="white"/>
<path d="M41.9612 2.88434C41.9612 2.88434 41.8498 2.88434 41.7186 2.98318C41.7186 2.98318 41.5982 3.06045 41.5874 3.23657C41.5874 3.23657 41.5874 3.30306 41.6305 3.42347C41.6305 3.42347 41.6737 3.52231 41.6737 3.61037H41.8048C41.8048 3.61037 41.7276 3.47918 41.7276 3.33541C41.7276 3.33541 41.7168 3.0928 41.9594 3.00474V2.88434H41.9612Z" fill="white"/>
<path d="M41.9644 3.64258V3.90675C41.9644 3.90675 41.6392 3.89597 41.3876 3.99481C41.3876 3.99481 41.2564 4.0613 41.2007 3.95168C41.2007 3.95168 41.1342 3.85284 41.2564 3.76478C41.2564 3.76478 41.5044 3.64438 41.9662 3.64438L41.9644 3.64258Z" fill="white"/>
<path d="M41.8831 3.59963H41.8399C41.8399 3.59963 41.7734 3.49001 41.7734 3.32468C41.7734 3.32468 41.7842 3.11622 41.9621 3.03894V3.11622C41.9621 3.11622 41.8184 3.19349 41.8184 3.36961C41.8184 3.36961 41.8184 3.49001 41.8849 3.60143L41.8831 3.59963Z" fill="white"/>
<path d="M41.9602 3.14844V3.29221C41.9602 3.29221 41.9278 3.29221 41.9278 3.33534V3.59951C41.9278 3.59951 41.8721 3.51145 41.8613 3.36768C41.8613 3.36768 41.8667 3.21313 41.9602 3.14844Z" fill="white"/>
<path d="M41.96 0V0.199478L42.066 0.373796L42.1397 0.37739L41.96 0Z" fill="white"/>
<path d="M42.1397 0.377401L41.96 0.517574V0.463661L42.0696 0.372009L42.1397 0.377401Z" fill="white"/>
<path d="M41.96 0.264282L42.0265 0.375702L41.96 0.418833V0.264282Z" fill="white"/>
<path d="M42.0979 0.458374C42.0979 0.458374 42.0548 0.754895 42.0763 1.064C42.0763 1.064 42.0763 1.42701 42.1752 1.64805H42.0871L41.9883 1.51686V0.546432L42.0979 0.458374Z" fill="white"/>
<path d="M41.96 1.54187L42.048 1.65149H41.96V1.54187Z" fill="white"/>
<path d="M41.96 1.7952L42.048 1.68378H41.96V1.7952Z" fill="white"/>
<path d="M42.1796 1.68378H42.0916L41.9819 1.82754V2.54279H42.1688C42.1688 2.54279 42.1023 2.35589 42.1131 1.99288C42.1131 1.99288 42.1239 1.7952 42.1796 1.68557V1.68378Z" fill="white"/>
<path d="M42.4886 0.0125122C42.4886 0.0125122 42.4113 0.19941 42.4886 0.375526C42.4886 0.375526 42.5659 0.519293 42.7635 0.594771L42.7078 0.682829C42.7078 0.682829 42.3448 0.495931 42.3233 0.287468C42.3233 0.287468 42.2909 0.0897874 42.4886 0.0125122Z" fill="white"/>
<path d="M42.7974 0.749436C42.7974 0.749436 42.7093 0.693726 42.7651 0.639813C42.7651 0.639813 42.8639 0.562538 42.9843 0.639813C42.9843 0.639813 43.0508 0.695523 42.9735 0.749436C42.9735 0.749436 42.9304 0.826711 43.0059 0.781784C43.0059 0.781784 43.1155 0.693726 43.2593 0.792566C43.2593 0.792566 43.403 0.902189 43.3024 1.02439C43.3024 1.02439 43.2593 1.04596 43.2035 1.04596C43.2035 1.04596 43.1712 1.08909 43.2359 1.08909C43.2359 1.08909 43.4444 1.02259 43.5773 1.2652C43.5773 1.2652 43.687 1.47367 43.4228 1.54016C43.4228 1.54016 43.3563 1.56172 43.4228 1.58329C43.4228 1.58329 43.7301 1.5168 43.7642 1.8259C43.7642 1.8259 43.7966 2.04514 43.545 2.09007C43.545 2.09007 43.4785 2.12242 43.545 2.1332C43.545 2.1332 43.908 2.12242 43.8972 2.54114C43.8972 2.54114 43.8864 2.82688 43.6223 2.88259C43.6223 2.88259 43.3689 2.91494 43.3024 2.65076C43.3024 2.65076 43.5989 2.73882 43.5989 2.49621C43.5989 2.49621 43.5989 2.36503 43.4012 2.35245C43.4012 2.35245 43.27 2.34166 43.1371 2.56091L43.0706 2.68131L42.9394 2.63818C42.9394 2.63818 43.2593 2.25361 43.2359 1.76839C43.2359 1.76839 43.2682 1.2077 42.7956 0.745842L42.7974 0.749436Z" fill="white"/>
<path d="M42.3019 0.341309C42.3019 0.341309 42.3576 0.517424 42.5553 0.627047C42.5553 0.627047 42.9632 0.79238 43.1268 1.36386C43.1268 1.36386 43.3909 1.9587 42.9075 2.61823L42.7638 2.59666C42.7638 2.59666 43.0279 2.35406 43.0279 1.92455C43.0279 1.92455 43.0387 1.44113 42.6649 1.44113C42.6649 1.44113 42.4996 1.43035 42.4331 1.62803C42.4331 1.62803 42.39 1.75922 42.4439 1.88142C42.4439 1.88142 42.2462 1.82571 42.2354 1.59568C42.2354 1.59568 42.2246 1.29916 42.4888 1.23267C42.4888 1.23267 42.7961 1.22189 42.7638 1.02421C42.7638 1.02421 42.7745 0.914582 42.5445 0.716902C42.5445 0.716902 42.3253 0.551569 42.3019 0.343106V0.341309Z" fill="white"/>
<path d="M42.9842 1.9823C42.9842 1.9823 42.9842 2.3561 42.7093 2.5987L42.5439 2.57714C42.5439 2.57714 42.8962 2.36868 42.9842 1.9823Z" fill="white"/>
<path d="M41.9614 2.56445C41.9614 2.56445 42.6317 2.58602 43.1152 2.719C43.1152 2.719 43.2463 2.77471 43.2032 2.89512C43.2032 2.89512 43.1817 3.00474 43.0379 2.98318C43.0379 2.98318 42.4988 2.83941 41.9614 2.83941V2.56445Z" fill="white"/>
<path d="M42.103 2.88434L42.2342 2.96161L42.3223 2.89512C42.3223 2.89512 42.2019 2.88434 42.103 2.88434Z" fill="white"/>
<path d="M42.4784 3.0712C42.4784 3.0712 42.4568 2.98314 42.4011 2.96157C42.4011 2.96157 42.3688 2.97236 42.3131 3.02807L42.2466 2.97236C42.2466 2.97236 42.3239 2.90586 42.4119 2.89508C42.4119 2.89508 42.4892 2.91665 42.5323 3.01549L42.4766 3.0712H42.4784Z" fill="white"/>
<path d="M42.4868 2.90601L42.5533 3.00485L42.6521 2.93835C42.6521 2.93835 42.5641 2.91679 42.4868 2.90601Z" fill="white"/>
<path d="M42.3777 3.00465C42.3777 3.00465 42.3993 2.99387 42.4208 3.01543C42.4208 3.01543 42.4424 3.04778 42.4424 3.10349C42.4424 3.10349 42.4424 3.12505 42.4208 3.14662L42.3651 3.22389C42.3651 3.22389 42.3867 3.18076 42.3543 3.11427C42.3543 3.11427 42.322 3.08192 42.3328 3.04778C42.3328 3.04778 42.3436 3.02621 42.3759 3.00465H42.3777Z" fill="white"/>
<path d="M43.0277 3.01547C43.0277 3.01547 42.8732 2.95976 42.7078 2.94897C42.7078 2.94897 42.3448 3.08016 42.2783 3.62109L42.3664 3.63187C42.3664 3.63187 42.4437 3.31199 42.6198 3.17002C42.6198 3.17002 42.7635 3.03883 43.0151 3.04961L43.0259 3.01726L43.0277 3.01547Z" fill="white"/>
<path d="M43.1812 3.22574C43.1812 3.22574 43.1704 3.08197 42.9385 3.08197C42.9385 3.08197 42.6959 3.10354 42.5647 3.27965C42.5647 3.27965 42.4551 3.4342 42.3994 3.64266L42.4659 3.65345C42.4659 3.65345 42.4983 3.54382 42.554 3.47733C42.554 3.47733 42.5971 3.44498 42.5863 3.4989C42.5863 3.4989 42.5306 3.58695 42.4983 3.66423L42.5647 3.68579C42.5647 3.68579 42.6636 3.47733 42.8181 3.36591L42.775 3.32278C42.775 3.32278 42.7642 3.29043 42.7966 3.30122C42.7966 3.30122 42.8523 3.40006 43.005 3.38927C43.005 3.38927 43.1919 3.37849 43.1812 3.22394V3.22574Z" fill="white"/>
<path d="M41.9614 2.88434C41.9614 2.88434 42.071 2.88434 42.2022 2.98318C42.2022 2.98318 42.3226 3.06045 42.3334 3.23657C42.3334 3.23657 42.3334 3.30306 42.2903 3.42347C42.2903 3.42347 42.2472 3.52231 42.2472 3.61037H42.116C42.116 3.61037 42.1933 3.47918 42.1933 3.33541C42.1933 3.33541 42.204 3.0928 41.9632 3.00474V2.88434H41.9614Z" fill="white"/>
<path d="M41.9535 3.64258V3.90675C41.9535 3.90675 42.2769 3.89597 42.5303 3.99481C42.5303 3.99481 42.6615 4.0613 42.7172 3.95168C42.7172 3.95168 42.7837 3.85284 42.6615 3.76478C42.6615 3.76478 42.4135 3.64438 41.9517 3.64438L41.9535 3.64258Z" fill="white"/>
<path d="M42.0369 3.59966H42.08C42.08 3.59966 42.1465 3.49004 42.1465 3.32471C42.1465 3.32471 42.1357 3.11624 41.9614 3.03717V3.11445C41.9614 3.11445 42.1034 3.19172 42.1034 3.36784C42.1034 3.36784 42.1034 3.48824 42.0369 3.59966Z" fill="white"/>
<path d="M41.96 3.14682V3.29058C41.96 3.29058 41.9941 3.29058 41.9941 3.33371V3.59789C41.9941 3.59789 42.0498 3.50983 42.0606 3.36606C42.0606 3.36606 42.0498 3.21151 41.9618 3.14502L41.96 3.14682Z" fill="white"/>
<path d="M47.2477 5.29418H47.05L46.9062 5.20612V5.12885L47.2477 5.29418Z" fill="white"/>
<path d="M46.8693 5.14502L46.7471 5.29957H46.8028L46.8693 5.21151V5.14502Z" fill="white"/>
<path d="M47.0003 5.29965L46.8906 5.23315L46.8457 5.29965H47.0003Z" fill="white"/>
<path d="M46.8078 5.16114C46.8078 5.16114 46.5113 5.20427 46.2022 5.1827C46.2022 5.1827 45.8392 5.1827 45.6182 5.08386V5.17192L45.7494 5.27076H46.718L46.806 5.16114H46.8078Z" fill="white"/>
<path d="M45.7229 5.29954L45.6133 5.21149V5.29954H45.7229Z" fill="white"/>
<path d="M45.4702 5.29954L45.5798 5.21149V5.29954H45.4702Z" fill="white"/>
<path d="M45.5807 5.07849V5.16655L45.4369 5.27617H44.7217V5.08927C44.7217 5.08927 44.9086 5.15577 45.2716 5.14498C45.2716 5.14498 45.4693 5.1342 45.5789 5.07849H45.5807Z" fill="white"/>
<path d="M47.2533 4.77111C47.2533 4.77111 47.0664 4.84839 46.8903 4.77111C46.8903 4.77111 46.7465 4.69384 46.6711 4.49615L46.583 4.55186C46.583 4.55186 46.7699 4.91488 46.9784 4.93644C46.9784 4.93644 47.1761 4.96879 47.2533 4.77111Z" fill="white"/>
<path d="M46.5172 4.46395C46.5172 4.46395 46.5729 4.55201 46.6268 4.4963C46.6268 4.4963 46.7041 4.39746 46.6268 4.27705C46.6268 4.27705 46.5711 4.21056 46.5172 4.28783C46.5172 4.28783 46.4399 4.33097 46.4849 4.25549C46.4849 4.25549 46.5729 4.14586 46.4741 4.0021C46.4741 4.0021 46.3645 3.85833 46.2423 3.95897C46.2423 3.95897 46.2207 4.0021 46.2207 4.05781C46.2207 4.05781 46.1776 4.09015 46.1776 4.02546C46.1776 4.02546 46.2441 3.817 46.0015 3.68401C46.0015 3.68401 45.793 3.57439 45.7265 3.83856C45.7265 3.83856 45.7049 3.90505 45.6834 3.83856C45.6834 3.83856 45.7499 3.53126 45.4408 3.49711C45.4408 3.49711 45.2215 3.46476 45.1766 3.71636C45.1766 3.71636 45.1442 3.78285 45.1335 3.71636C45.1335 3.71636 45.1442 3.35334 44.7255 3.36413C44.7255 3.36413 44.4398 3.37491 44.3841 3.63908C44.3841 3.63908 44.3517 3.89247 44.6159 3.95897C44.6159 3.95897 44.5278 3.66245 44.7704 3.66245C44.7704 3.66245 44.9016 3.66245 44.9142 3.86013C44.9142 3.86013 44.925 3.99131 44.7057 4.1243L44.5853 4.19079L44.6285 4.32198C44.6285 4.32198 45.013 4.0021 45.4983 4.02546C45.4983 4.02546 46.059 3.99311 46.5208 4.46575L46.5172 4.46395Z" fill="white"/>
<path d="M46.9224 4.95819C46.9224 4.95819 46.7463 4.90248 46.6367 4.70479C46.6367 4.70479 46.4714 4.29685 45.8999 4.13332C45.8999 4.13332 45.305 3.86914 44.6455 4.35256L44.6671 4.49633C44.6671 4.49633 44.9097 4.23216 45.3392 4.23216C45.3392 4.23216 45.8226 4.22138 45.8226 4.59517C45.8226 4.59517 45.8334 4.7605 45.6357 4.827C45.6357 4.827 45.5045 4.87013 45.3823 4.81621C45.3823 4.81621 45.438 5.0139 45.6681 5.02468C45.6681 5.02468 45.9646 5.03546 46.0311 4.77129C46.0311 4.77129 46.0419 4.46398 46.2395 4.49633C46.2395 4.49633 46.3492 4.48555 46.5468 4.71558C46.5468 4.71558 46.7122 4.93482 46.9206 4.95819H46.9224Z" fill="white"/>
<path d="M45.2824 4.27527C45.2824 4.27527 44.9086 4.27527 44.666 4.55022L44.6876 4.71556C44.6876 4.71556 44.896 4.36333 45.2824 4.27527Z" fill="white"/>
<path d="M44.7008 5.29966C44.7008 5.29966 44.6793 4.62754 44.5463 4.14412C44.5463 4.14412 44.4906 4.01294 44.3702 4.05607C44.3702 4.05607 44.2605 4.07763 44.2821 4.2214C44.2821 4.2214 44.4259 4.76053 44.4259 5.30145H44.7008V5.29966Z" fill="white"/>
<path d="M44.382 5.15583L44.3047 5.02464L44.3712 4.93658C44.3712 4.93658 44.382 5.05699 44.382 5.15583Z" fill="white"/>
<path d="M44.1948 4.78212C44.1948 4.78212 44.2829 4.80369 44.3044 4.8594C44.3044 4.8594 44.2937 4.89175 44.238 4.94746L44.2937 5.01395C44.2937 5.01395 44.3602 4.93667 44.3709 4.84862C44.3709 4.84862 44.3494 4.77134 44.2505 4.72821L44.1948 4.78392V4.78212Z" fill="white"/>
<path d="M44.3591 4.77135L44.2603 4.70486L44.3267 4.60602C44.3267 4.60602 44.3483 4.69408 44.3591 4.77135Z" fill="white"/>
<path d="M44.2612 4.88092C44.2612 4.88092 44.272 4.85935 44.2505 4.83779C44.2505 4.83779 44.2181 4.81622 44.1624 4.81622C44.1624 4.81622 44.1408 4.81622 44.1193 4.83779L44.042 4.8935C44.042 4.8935 44.0851 4.87193 44.1516 4.90428C44.1516 4.90428 44.184 4.93663 44.2181 4.92585C44.2181 4.92585 44.2397 4.91506 44.2612 4.88272V4.88092Z" fill="white"/>
<path d="M44.2492 4.23224C44.2492 4.23224 44.3049 4.38679 44.3157 4.55212C44.3157 4.55212 44.1845 4.91514 43.6436 4.98163L43.6328 4.89357C43.6328 4.89357 43.9527 4.8163 44.0947 4.64018C44.0947 4.64018 44.2259 4.49641 44.2151 4.24482L44.2474 4.23404L44.2492 4.23224Z" fill="white"/>
<path d="M44.0401 4.07766C44.0401 4.07766 44.1839 4.08844 44.1839 4.32027C44.1839 4.32027 44.1623 4.56287 43.9862 4.69406C43.9862 4.69406 43.8317 4.80369 43.6232 4.8594L43.6124 4.7929C43.6124 4.7929 43.722 4.76056 43.7885 4.70485C43.7885 4.70485 43.8209 4.66172 43.767 4.6725C43.767 4.6725 43.6789 4.72821 43.6016 4.76056L43.5801 4.69406C43.5801 4.69406 43.7885 4.59522 43.9 4.44067L43.9431 4.4838C43.9431 4.4838 43.9754 4.49459 43.9647 4.46224C43.9647 4.46224 43.8658 4.40653 43.8766 4.25377C43.8766 4.25377 43.8874 4.06688 44.0419 4.07766H44.0401Z" fill="white"/>
<path d="M44.3813 5.29964C44.3813 5.29964 44.3813 5.18822 44.2825 5.05703C44.2825 5.05703 44.2052 4.93662 44.0291 4.92584C44.0291 4.92584 43.9626 4.92584 43.8422 4.96897C43.8422 4.96897 43.7433 5.0121 43.6553 5.0121V5.14329C43.6553 5.14329 43.7865 5.06602 43.9302 5.06602C43.9302 5.06602 44.1728 5.05523 44.2609 5.29784H44.3813V5.29964Z" fill="white"/>
<path d="M43.6212 5.30483H43.3571C43.3571 5.30483 43.3678 4.97956 43.269 4.72797C43.269 4.72797 43.2025 4.59678 43.3121 4.54107C43.3121 4.54107 43.411 4.47458 43.499 4.59678C43.499 4.59678 43.6194 4.84478 43.6194 5.30663L43.6212 5.30483Z" fill="white"/>
<path d="M43.6663 5.22235V5.17922C43.6663 5.17922 43.776 5.11273 43.9413 5.11273C43.9413 5.11273 44.1498 5.12351 44.227 5.30143H44.1498C44.1498 5.30143 44.0725 5.15766 43.8964 5.15766C43.8964 5.15766 43.776 5.15766 43.6646 5.22415L43.6663 5.22235Z" fill="white"/>
<path d="M44.1171 5.29977H43.9733C43.9733 5.29977 43.9733 5.26742 43.9302 5.26742H43.666C43.666 5.26742 43.7541 5.21171 43.8978 5.20093C43.8978 5.20093 44.0524 5.20632 44.1171 5.29977Z" fill="white"/>
<path d="M47.2477 5.30499H47.05L46.9062 5.39305V5.47033L47.2477 5.30499Z" fill="white"/>
<path d="M46.8693 5.45417L46.7471 5.29962H46.8028L46.8693 5.38768V5.45417Z" fill="white"/>
<path d="M47.0003 5.29962L46.8906 5.36611L46.8457 5.29962H47.0003Z" fill="white"/>
<path d="M46.8078 5.4361C46.8078 5.4361 46.5113 5.39297 46.2022 5.41453C46.2022 5.41453 45.8392 5.41453 45.6182 5.51338V5.42532L45.7494 5.32648H46.718L46.806 5.4361H46.8078Z" fill="white"/>
<path d="M45.7229 5.29962L45.6133 5.38768V5.29962H45.7229Z" fill="white"/>
<path d="M45.4702 5.29962L45.5798 5.38768V5.29962H45.4702Z" fill="white"/>
<path d="M45.5807 5.51879V5.43073L45.4369 5.32111H44.7217V5.508C44.7217 5.508 44.9086 5.44151 45.2716 5.45229C45.2716 5.45229 45.4693 5.46308 45.5789 5.51879H45.5807Z" fill="white"/>
<path d="M47.2533 5.82794C47.2533 5.82794 47.0664 5.75067 46.8903 5.82794C46.8903 5.82794 46.7465 5.90522 46.6711 6.1029L46.583 6.04719C46.583 6.04719 46.7699 5.68418 46.9784 5.66261C46.9784 5.66261 47.1761 5.63026 47.2533 5.82794Z" fill="white"/>
<path d="M46.5172 6.13523C46.5172 6.13523 46.5729 6.04717 46.6268 6.10288C46.6268 6.10288 46.7041 6.20173 46.6268 6.32213C46.6268 6.32213 46.5711 6.38862 46.5172 6.31135C46.5172 6.31135 46.4399 6.26822 46.4849 6.3437C46.4849 6.3437 46.5729 6.45332 46.4741 6.59709C46.4741 6.59709 46.3645 6.74085 46.2423 6.64022C46.2423 6.64022 46.2207 6.59709 46.2207 6.54138C46.2207 6.54138 46.1776 6.50903 46.1776 6.57372C46.1776 6.57372 46.2441 6.78219 46.0015 6.91517C46.0015 6.91517 45.793 7.0248 45.7265 6.76062C45.7265 6.76062 45.7049 6.69413 45.6834 6.76062C45.6834 6.76062 45.7499 7.06793 45.4408 7.10207C45.4408 7.10207 45.2215 7.13442 45.1766 6.88282C45.1766 6.88282 45.1442 6.81633 45.1335 6.88282C45.1335 6.88282 45.1442 7.24584 44.7255 7.23506C44.7255 7.23506 44.4398 7.22427 44.3841 6.9601C44.3841 6.9601 44.3517 6.70671 44.6159 6.64022C44.6159 6.64022 44.5278 6.93674 44.7704 6.93674C44.7704 6.93674 44.9016 6.93674 44.9142 6.73906C44.9142 6.73906 44.925 6.60787 44.7057 6.47488L44.5853 6.40839L44.6285 6.2772C44.6285 6.2772 45.013 6.59709 45.4983 6.57372C45.4983 6.57372 46.059 6.60607 46.5208 6.13344L46.5172 6.13523Z" fill="white"/>
<path d="M46.9224 5.64102C46.9224 5.64102 46.7463 5.69673 46.6367 5.89441C46.6367 5.89441 46.4714 6.30235 45.8999 6.46588C45.8999 6.46588 45.305 6.73006 44.6455 6.24664L44.6671 6.10287C44.6671 6.10287 44.9097 6.36704 45.3392 6.36704C45.3392 6.36704 45.8226 6.37783 45.8226 6.00403C45.8226 6.00403 45.8334 5.8387 45.6357 5.7722C45.6357 5.7722 45.5045 5.72907 45.3823 5.78299C45.3823 5.78299 45.438 5.58531 45.6681 5.57452C45.6681 5.57452 45.9646 5.56374 46.0311 5.82791C46.0311 5.82791 46.0419 6.13522 46.2395 6.10287C46.2395 6.10287 46.3492 6.11365 46.5468 5.88363C46.5468 5.88363 46.7122 5.66438 46.9206 5.64102H46.9224Z" fill="white"/>
<path d="M45.2824 6.32231C45.2824 6.32231 44.9086 6.32231 44.666 6.04735L44.6876 5.88202C44.6876 5.88202 44.896 6.23425 45.2824 6.32231Z" fill="white"/>
<path d="M44.7008 5.29962C44.7008 5.29962 44.6793 5.96994 44.5463 6.45336C44.5463 6.45336 44.4906 6.58455 44.3702 6.54142C44.3702 6.54142 44.2605 6.51985 44.2821 6.37608C44.2821 6.37608 44.4259 5.83695 44.4259 5.29962H44.7008Z" fill="white"/>
<path d="M44.382 5.44153L44.3047 5.57272L44.3712 5.66077C44.3712 5.66077 44.382 5.54037 44.382 5.44153Z" fill="white"/>
<path d="M44.1948 5.81709C44.1948 5.81709 44.2829 5.79553 44.3044 5.73982C44.3044 5.73982 44.2937 5.70747 44.238 5.65176L44.2937 5.58527C44.2937 5.58527 44.3602 5.66254 44.3709 5.7506C44.3709 5.7506 44.3494 5.82787 44.2505 5.871L44.1948 5.81529V5.81709Z" fill="white"/>
<path d="M44.3591 5.82806L44.2603 5.89456L44.3267 5.9934C44.3267 5.9934 44.3483 5.90534 44.3591 5.82806Z" fill="white"/>
<path d="M44.2612 5.71656C44.2612 5.71656 44.272 5.73813 44.2505 5.75969C44.2505 5.75969 44.2181 5.78126 44.1624 5.78126C44.1624 5.78126 44.1408 5.78126 44.1193 5.75969L44.042 5.70398C44.042 5.70398 44.0851 5.72555 44.1516 5.6932C44.1516 5.6932 44.184 5.66085 44.2181 5.67163C44.2181 5.67163 44.2397 5.68242 44.2612 5.71476V5.71656Z" fill="white"/>
<path d="M44.2492 6.36707C44.2492 6.36707 44.3049 6.21251 44.3157 6.04718C44.3157 6.04718 44.1845 5.68417 43.6436 5.61768L43.6328 5.70573C43.6328 5.70573 43.9527 5.78301 44.0947 5.95912C44.0947 5.95912 44.2259 6.10289 44.2151 6.35449L44.2474 6.36527L44.2492 6.36707Z" fill="white"/>
<path d="M44.0401 6.51983C44.0401 6.51983 44.1839 6.50905 44.1839 6.27723C44.1839 6.27723 44.1623 6.03462 43.9862 5.90343C43.9862 5.90343 43.8317 5.79381 43.6232 5.7381L43.6124 5.80459C43.6124 5.80459 43.722 5.83694 43.7885 5.89265C43.7885 5.89265 43.8209 5.93578 43.767 5.925C43.767 5.925 43.6789 5.86929 43.6016 5.83694L43.5801 5.90343C43.5801 5.90343 43.7885 6.00227 43.9 6.15682L43.9431 6.11369C43.9431 6.11369 43.9754 6.10291 43.9647 6.13526C43.9647 6.13526 43.8658 6.19097 43.8766 6.34372C43.8766 6.34372 43.8874 6.53062 44.0419 6.51983H44.0401Z" fill="white"/>
<path d="M44.3813 5.29962C44.3813 5.29962 44.3813 5.40924 44.2825 5.54043C44.2825 5.54043 44.2052 5.66084 44.0291 5.67162C44.0291 5.67162 43.9626 5.67162 43.8422 5.62849C43.8422 5.62849 43.7433 5.58536 43.6553 5.58536V5.45417C43.6553 5.45417 43.7865 5.53145 43.9302 5.53145C43.9302 5.53145 44.1728 5.54223 44.2609 5.30142H44.3813V5.29962Z" fill="white"/>
<path d="M43.6212 5.29409H43.3571C43.3571 5.29409 43.3678 5.61757 43.269 5.87096C43.269 5.87096 43.2025 6.00215 43.3121 6.05786C43.3121 6.05786 43.411 6.12435 43.499 6.00215C43.499 6.00215 43.6194 5.75415 43.6194 5.2923L43.6212 5.29409Z" fill="white"/>
<path d="M43.666 5.37693V5.42006C43.666 5.42006 43.7756 5.48655 43.941 5.48655C43.941 5.48655 44.1494 5.47577 44.2285 5.30145H44.1512C44.1512 5.30145 44.074 5.44342 43.8978 5.44342C43.8978 5.44342 43.7774 5.44342 43.666 5.37693Z" fill="white"/>
<path d="M44.1171 5.29962H43.9733C43.9733 5.29962 43.9733 5.33377 43.9302 5.33377H43.666C43.666 5.33377 43.7541 5.38948 43.8978 5.40026C43.8978 5.40026 44.0524 5.38948 44.1189 5.30142L44.1171 5.29962Z" fill="white"/>
<path d="M41.9644 10.5816V10.3839L42.0524 10.2401H42.1297L41.9644 10.5816Z" fill="white"/>
<path d="M42.1145 10.2023L41.96 10.0801V10.1358L42.048 10.2023H42.1145Z" fill="white"/>
<path d="M41.96 10.3335L42.0265 10.2239L41.96 10.1808V10.3335Z" fill="white"/>
<path d="M42.0979 10.1411C42.0979 10.1411 42.0548 9.84457 42.0763 9.53547C42.0763 9.53547 42.0763 9.17246 42.1752 8.95142H42.0871L41.9883 9.0826V10.0512L42.0979 10.1393V10.1411Z" fill="white"/>
<path d="M41.96 9.05744L42.048 8.94781H41.96V9.05744Z" fill="white"/>
<path d="M41.96 8.80414L42.048 8.91376H41.96V8.80414Z" fill="white"/>
<path d="M42.1796 8.91376H42.0916L41.9819 8.76999V8.05475H42.1688C42.1688 8.05475 42.1023 8.24165 42.1131 8.60466C42.1131 8.60466 42.1239 8.80234 42.1796 8.91196V8.91376Z" fill="white"/>
<path d="M42.4886 10.5868C42.4886 10.5868 42.4113 10.3999 42.4886 10.2238C42.4886 10.2238 42.5659 10.08 42.7635 10.0046L42.7078 9.9165C42.7078 9.9165 42.3448 10.1034 42.3233 10.3119C42.3233 10.3119 42.2909 10.5095 42.4886 10.5868Z" fill="white"/>
<path d="M42.7974 9.85004C42.7974 9.85004 42.7093 9.90575 42.7651 9.95967C42.7651 9.95967 42.8639 10.0369 42.9843 9.95967C42.9843 9.95967 43.0508 9.90396 42.9735 9.85004C42.9735 9.85004 42.9304 9.77277 43.0059 9.8177C43.0059 9.8177 43.1155 9.90575 43.2593 9.80691C43.2593 9.80691 43.403 9.69729 43.3024 9.57509C43.3024 9.57509 43.2593 9.55352 43.2035 9.55352C43.2035 9.55352 43.1712 9.51039 43.2359 9.51039C43.2359 9.51039 43.4444 9.57688 43.5773 9.33428C43.5773 9.33428 43.687 9.12581 43.4228 9.05932C43.4228 9.05932 43.3563 9.03775 43.4228 9.01619C43.4228 9.01619 43.7301 9.08268 43.7642 8.77358C43.7642 8.77358 43.7966 8.55434 43.545 8.50941C43.545 8.50941 43.4785 8.47706 43.545 8.46628C43.545 8.46628 43.908 8.47706 43.8972 8.05834C43.8972 8.05834 43.8864 7.7726 43.6223 7.71689C43.6223 7.71689 43.3689 7.68454 43.3024 7.94871C43.3024 7.94871 43.5989 7.86066 43.5989 8.10327C43.5989 8.10327 43.5989 8.23445 43.4012 8.24703C43.4012 8.24703 43.27 8.25782 43.1371 8.03857L43.0706 7.91816L42.9394 7.96129C42.9394 7.96129 43.2593 8.34587 43.2359 8.83109C43.2359 8.83109 43.2682 9.39178 42.7956 9.85364L42.7974 9.85004Z" fill="white"/>
<path d="M42.3019 10.256C42.3019 10.256 42.3576 10.0799 42.5553 9.97031C42.5553 9.97031 42.9632 9.80498 43.1268 9.2335C43.1268 9.2335 43.3909 8.63866 42.9075 7.97913L42.7638 8.00069C42.7638 8.00069 43.0279 8.2433 43.0279 8.6728C43.0279 8.6728 43.0387 9.15622 42.6649 9.15622C42.6649 9.15622 42.4996 9.16701 42.4331 8.96933C42.4331 8.96933 42.39 8.83814 42.4439 8.71594C42.4439 8.71594 42.2462 8.77165 42.2354 9.00167C42.2354 9.00167 42.2246 9.29819 42.4888 9.36469C42.4888 9.36469 42.7961 9.37547 42.7638 9.57315C42.7638 9.57315 42.7745 9.68277 42.5445 9.88045C42.5445 9.88045 42.3253 10.0458 42.3019 10.2543V10.256Z" fill="white"/>
<path d="M42.9842 8.61726C42.9842 8.61726 42.9842 8.24346 42.7093 8.00085L42.5439 8.02242C42.5439 8.02242 42.8962 8.23088 42.9842 8.61726Z" fill="white"/>
<path d="M41.9583 8.03506C41.9583 8.03506 42.6305 8.01349 43.1139 7.88051C43.1139 7.88051 43.2451 7.8248 43.2019 7.70439C43.2019 7.70439 43.1804 7.59477 43.0366 7.61634C43.0366 7.61634 42.4975 7.7601 41.9565 7.7601V8.03506H41.9583Z" fill="white"/>
<path d="M42.103 7.71509L42.2342 7.63782L42.3223 7.70431C42.3223 7.70431 42.2019 7.71509 42.103 7.71509Z" fill="white"/>
<path d="M42.4784 7.52814C42.4784 7.52814 42.4568 7.6162 42.4011 7.63776C42.4011 7.63776 42.3688 7.62698 42.3131 7.57127L42.2466 7.62698C42.2466 7.62698 42.3239 7.69347 42.4119 7.70425C42.4119 7.70425 42.4892 7.68269 42.5323 7.58385L42.4766 7.52814H42.4784Z" fill="white"/>
<path d="M42.4868 7.69345L42.5533 7.5946L42.6521 7.6611C42.6521 7.6611 42.5641 7.68266 42.4868 7.69345Z" fill="white"/>
<path d="M42.3777 7.59473C42.3777 7.59473 42.3993 7.60552 42.4208 7.58395C42.4208 7.58395 42.4424 7.5516 42.4424 7.49589C42.4424 7.49589 42.4424 7.47433 42.4208 7.45276L42.3651 7.37549C42.3651 7.37549 42.3867 7.41862 42.3543 7.48511C42.3543 7.48511 42.322 7.51746 42.3328 7.5516C42.3328 7.5516 42.3436 7.57317 42.3759 7.59473H42.3777Z" fill="white"/>
<path d="M43.0277 7.5821C43.0277 7.5821 42.8732 7.63781 42.7078 7.6486C42.7078 7.6486 42.3448 7.51741 42.2783 6.97648L42.3664 6.9657C42.3664 6.9657 42.4437 7.28558 42.6198 7.42755C42.6198 7.42755 42.7635 7.55874 43.0151 7.54796L43.0259 7.58031L43.0277 7.5821Z" fill="white"/>
<path d="M43.1812 7.37363C43.1812 7.37363 43.1704 7.5174 42.9385 7.5174C42.9385 7.5174 42.6959 7.49583 42.5647 7.31972C42.5647 7.31972 42.4551 7.16517 42.3994 6.9567L42.4659 6.94592C42.4659 6.94592 42.4983 7.05554 42.554 7.12204C42.554 7.12204 42.5971 7.15438 42.5863 7.10047C42.5863 7.10047 42.5306 7.01241 42.4983 6.93514L42.5647 6.91357C42.5647 6.91357 42.6636 7.12204 42.8181 7.23346L42.775 7.27659C42.775 7.27659 42.7642 7.30894 42.7966 7.29815C42.7966 7.29815 42.8523 7.19931 43.005 7.21009C43.005 7.21009 43.1919 7.22088 43.1812 7.37543V7.37363Z" fill="white"/>
<path d="M41.96 7.71498C41.96 7.71498 42.0714 7.71498 42.2026 7.61614C42.2026 7.61614 42.323 7.53886 42.3338 7.36275C42.3338 7.36275 42.3338 7.29626 42.2906 7.17585C42.2906 7.17585 42.2475 7.07701 42.2475 6.98895H42.1163C42.1163 6.98895 42.1936 7.12014 42.1936 7.26391C42.1936 7.26391 42.2044 7.50652 41.9618 7.59457V7.71498H41.96Z" fill="white"/>
<path d="M41.9535 6.95497V6.6908C41.9535 6.6908 42.2787 6.70158 42.5303 6.60274C42.5303 6.60274 42.6615 6.53625 42.7172 6.64587C42.7172 6.64587 42.7837 6.74471 42.6615 6.83277C42.6615 6.83277 42.4135 6.95318 41.9517 6.95318L41.9535 6.95497Z" fill="white"/>
<path d="M42.0356 6.99991H42.0787C42.0787 6.99991 42.1452 7.10953 42.1452 7.27486C42.1452 7.27486 42.1345 7.48332 41.9565 7.5606V7.48332C41.9565 7.48332 42.1003 7.40605 42.1003 7.22993C42.1003 7.22993 42.1003 7.10953 42.0338 6.99811L42.0356 6.99991Z" fill="white"/>
<path d="M41.96 7.45101V7.30724C41.96 7.30724 41.9923 7.30724 41.9923 7.26411V6.99994C41.9923 6.99994 42.048 7.088 42.0588 7.23176C42.0588 7.23176 42.0534 7.38631 41.96 7.45101Z" fill="white"/>
<path d="M41.9549 10.5816V10.3839L41.8668 10.2401H41.7896L41.9549 10.5816Z" fill="white"/>
<path d="M41.8052 10.2023L41.9579 10.0801V10.1358L41.8699 10.2023H41.8052Z" fill="white"/>
<path d="M41.9592 10.3335L41.8945 10.2239L41.9592 10.1808V10.3335Z" fill="white"/>
<path d="M41.8239 10.1411C41.8239 10.1411 41.867 9.84457 41.8454 9.53547C41.8454 9.53547 41.8454 9.17246 41.7466 8.95142H41.8346L41.9335 9.0826V10.0512L41.8239 10.1393V10.1411Z" fill="white"/>
<path d="M41.9601 9.05744L41.8721 8.94781H41.9601V9.05744Z" fill="white"/>
<path d="M41.9601 8.80414L41.8721 8.91376H41.9601V8.80414Z" fill="white"/>
<path d="M41.7402 8.91376H41.8283L41.9379 8.76999V8.05475H41.751C41.751 8.05475 41.8175 8.24165 41.8067 8.60466C41.8067 8.60466 41.7959 8.80234 41.7402 8.91196V8.91376Z" fill="white"/>
<path d="M41.4322 10.5868C41.4322 10.5868 41.5095 10.3999 41.4322 10.2238C41.4322 10.2238 41.3549 10.08 41.1572 10.0046L41.2129 9.9165C41.2129 9.9165 41.576 10.1034 41.5975 10.3119C41.5975 10.3119 41.6299 10.5095 41.4322 10.5868Z" fill="white"/>
<path d="M41.1235 9.85004C41.1235 9.85004 41.2116 9.90575 41.1558 9.95967C41.1558 9.95967 41.057 10.0369 40.9366 9.95967C40.9366 9.95967 40.8701 9.90396 40.9474 9.85004C40.9474 9.85004 40.9905 9.77277 40.915 9.8177C40.915 9.8177 40.8054 9.90575 40.6616 9.80691C40.6616 9.80691 40.5179 9.69729 40.6185 9.57509C40.6185 9.57509 40.6616 9.55352 40.7174 9.55352C40.7174 9.55352 40.7497 9.51039 40.685 9.51039C40.685 9.51039 40.4765 9.57688 40.3436 9.33428C40.3436 9.33428 40.2339 9.12581 40.4981 9.05932C40.4981 9.05932 40.5646 9.03775 40.4981 9.01619C40.4981 9.01619 40.1908 9.08268 40.1567 8.77358C40.1567 8.77358 40.1243 8.55434 40.3759 8.50941C40.3759 8.50941 40.4424 8.47706 40.3759 8.46628C40.3759 8.46628 40.0129 8.47706 40.0237 8.05834C40.0237 8.05834 40.0345 7.7726 40.2986 7.71689C40.2986 7.71689 40.552 7.68454 40.6185 7.94871C40.6185 7.94871 40.322 7.86066 40.322 8.10327C40.322 8.10327 40.322 8.23445 40.5197 8.24703C40.5197 8.24703 40.6509 8.25782 40.7838 8.03857L40.8503 7.91816L40.9815 7.96129C40.9815 7.96129 40.6616 8.34587 40.685 8.83109C40.685 8.83109 40.6527 9.39178 41.1253 9.85364L41.1235 9.85004Z" fill="white"/>
<path d="M41.6181 10.256C41.6181 10.256 41.5624 10.0799 41.3647 9.97031C41.3647 9.97031 40.9568 9.80498 40.7932 9.2335C40.7932 9.2335 40.5291 8.63866 41.0125 7.97913L41.1562 8.00069C41.1562 8.00069 40.8921 8.2433 40.8921 8.6728C40.8921 8.6728 40.8813 9.15622 41.2551 9.15622C41.2551 9.15622 41.4204 9.16701 41.4869 8.96933C41.4869 8.96933 41.53 8.83814 41.4761 8.71594C41.4761 8.71594 41.6738 8.77165 41.6846 9.00167C41.6846 9.00167 41.6954 9.29819 41.4312 9.36469C41.4312 9.36469 41.1239 9.37547 41.1562 9.57315C41.1562 9.57315 41.1455 9.68277 41.3755 9.88045C41.3755 9.88045 41.5947 10.0458 41.6181 10.2543V10.256Z" fill="white"/>
<path d="M40.936 8.61726C40.936 8.61726 40.936 8.24346 41.211 8.00085L41.3763 8.02242C41.3763 8.02242 41.0241 8.23088 40.936 8.61726Z" fill="white"/>
<path d="M41.9605 8.03506C41.9605 8.03506 41.2901 8.01349 40.8067 7.88051C40.8067 7.88051 40.6755 7.8248 40.7187 7.70439C40.7187 7.70439 40.7402 7.59477 40.884 7.61634C40.884 7.61634 41.4231 7.7601 41.9605 7.7601V8.03506Z" fill="white"/>
<path d="M41.8174 7.71509L41.6862 7.63782L41.5981 7.70431C41.5981 7.70431 41.7186 7.71509 41.8174 7.71509Z" fill="white"/>
<path d="M41.4436 7.52814C41.4436 7.52814 41.4651 7.6162 41.5208 7.63776C41.5208 7.63776 41.5532 7.62698 41.6089 7.57127L41.6754 7.62698C41.6754 7.62698 41.5981 7.69347 41.5101 7.70425C41.5101 7.70425 41.4328 7.68269 41.3896 7.58385L41.4454 7.52814H41.4436Z" fill="white"/>
<path d="M41.431 7.69345L41.3645 7.5946L41.2656 7.6611C41.2656 7.6611 41.3537 7.68266 41.431 7.69345Z" fill="white"/>
<path d="M41.5422 7.59473C41.5422 7.59473 41.5207 7.60552 41.4991 7.58395C41.4991 7.58395 41.4775 7.5516 41.4775 7.49589C41.4775 7.49589 41.4775 7.47433 41.4991 7.45276L41.5548 7.37549C41.5548 7.37549 41.5332 7.41862 41.5656 7.48511C41.5656 7.48511 41.5979 7.51746 41.5872 7.5516C41.5872 7.5516 41.5764 7.57317 41.544 7.59473H41.5422Z" fill="white"/>
<path d="M40.8931 7.5821C40.8931 7.5821 41.0476 7.63781 41.213 7.6486C41.213 7.6486 41.576 7.51741 41.6425 6.97648L41.5544 6.9657C41.5544 6.9657 41.4771 7.28558 41.301 7.42755C41.301 7.42755 41.1572 7.55874 40.9056 7.54796L40.8949 7.58031L40.8931 7.5821Z" fill="white"/>
<path d="M40.7392 7.37363C40.7392 7.37363 40.75 7.5174 40.9818 7.5174C40.9818 7.5174 41.2244 7.49583 41.3556 7.31972C41.3556 7.31972 41.4652 7.16517 41.521 6.9567L41.4545 6.94592C41.4545 6.94592 41.4221 7.05554 41.3664 7.12204C41.3664 7.12204 41.3233 7.15438 41.3341 7.10047C41.3341 7.10047 41.3898 7.01241 41.4221 6.93514L41.3556 6.91357C41.3556 6.91357 41.2568 7.12204 41.1022 7.23346L41.1454 7.27659C41.1454 7.27659 41.1561 7.30894 41.1238 7.29815C41.1238 7.29815 41.0681 7.19931 40.9153 7.21009C40.9153 7.21009 40.7284 7.22088 40.7392 7.37543V7.37363Z" fill="white"/>
<path d="M41.9594 7.71498C41.9594 7.71498 41.8498 7.71498 41.7186 7.61614C41.7186 7.61614 41.5982 7.53886 41.5874 7.36275C41.5874 7.36275 41.5874 7.29626 41.6305 7.17585C41.6305 7.17585 41.6737 7.07701 41.6737 6.98895H41.8048C41.8048 6.98895 41.7276 7.12014 41.7276 7.26391C41.7276 7.26391 41.7168 7.50652 41.9576 7.59457V7.71498H41.9594Z" fill="white"/>
<path d="M41.9644 6.95497V6.6908C41.9644 6.6908 41.641 6.70158 41.3876 6.60274C41.3876 6.60274 41.2564 6.53625 41.2007 6.64587C41.2007 6.64587 41.1342 6.74471 41.2564 6.83277C41.2564 6.83277 41.5044 6.95318 41.9662 6.95318L41.9644 6.95497Z" fill="white"/>
<path d="M41.8831 6.99994H41.8399C41.8399 6.99994 41.7734 7.10956 41.7734 7.27489C41.7734 7.27489 41.7842 7.48336 41.9585 7.56243V7.48516C41.9585 7.48516 41.8166 7.40788 41.8166 7.23176C41.8166 7.23176 41.8166 7.11136 41.8831 6.99994Z" fill="white"/>
<path d="M41.962 7.45101V7.30724C41.962 7.30724 41.9278 7.30724 41.9278 7.26411V6.99994C41.9278 6.99994 41.8721 7.088 41.8613 7.23176C41.8613 7.23176 41.8721 7.38631 41.9602 7.45281L41.962 7.45101Z" fill="white"/>
<path d="M36.668 5.30499H36.8674L37.0094 5.39305V5.47033L36.668 5.30499Z" fill="white"/>
<path d="M37.0498 5.45417L37.1702 5.29962H37.1145L37.0498 5.38768V5.45417Z" fill="white"/>
<path d="M36.916 5.29962L37.0256 5.36611L37.0706 5.29962H36.916Z" fill="white"/>
<path d="M37.1089 5.4361C37.1089 5.4361 37.4054 5.39297 37.7145 5.41453C37.7145 5.41453 38.0775 5.41453 38.2986 5.51338V5.42532L38.1674 5.32648H37.1987L37.1107 5.4361H37.1089Z" fill="white"/>
<path d="M38.1934 5.29962L38.3048 5.38768V5.29962H38.1934Z" fill="white"/>
<path d="M38.446 5.29962L38.3364 5.38768V5.29962H38.446Z" fill="white"/>
<path d="M38.3364 5.51879V5.43073L38.4802 5.32111H39.1954V5.508C39.1954 5.508 39.0085 5.44151 38.6455 5.45229C38.6455 5.45229 38.4478 5.46308 38.3382 5.51879H38.3364Z" fill="white"/>
<path d="M36.6631 5.82794C36.6631 5.82794 36.85 5.75067 37.0261 5.82794C37.0261 5.82794 37.1699 5.90522 37.2453 6.1029L37.3334 6.04719C37.3334 6.04719 37.1465 5.68418 36.938 5.66261C36.938 5.66261 36.7404 5.63026 36.6631 5.82794Z" fill="white"/>
<path d="M37.4008 6.13523C37.4008 6.13523 37.3451 6.04717 37.2912 6.10288C37.2912 6.10288 37.2139 6.20173 37.2912 6.32213C37.2912 6.32213 37.3469 6.38862 37.4008 6.31135C37.4008 6.31135 37.4781 6.26822 37.4332 6.3437C37.4332 6.3437 37.3451 6.45332 37.4439 6.59709C37.4439 6.59709 37.5536 6.74085 37.6758 6.64022C37.6758 6.64022 37.6973 6.59709 37.6973 6.54138C37.6973 6.54138 37.7405 6.50903 37.7405 6.57372C37.7405 6.57372 37.674 6.78219 37.9166 6.91517C37.9166 6.91517 38.125 7.0248 38.1915 6.76062C38.1915 6.76062 38.2131 6.69413 38.2347 6.76062C38.2347 6.76062 38.1682 7.06793 38.4773 7.10207C38.4773 7.10207 38.6965 7.13442 38.7414 6.88282C38.7414 6.88282 38.7738 6.81633 38.7846 6.88282C38.7846 6.88282 38.7738 7.24584 39.1925 7.23506C39.1925 7.23506 39.4782 7.22427 39.534 6.9601C39.534 6.9601 39.5663 6.70671 39.3021 6.64022C39.3021 6.64022 39.3902 6.93674 39.1476 6.93674C39.1476 6.93674 39.0164 6.93674 39.0038 6.73906C39.0038 6.73906 38.993 6.60787 39.2123 6.47488L39.3327 6.40839L39.2896 6.2772C39.2896 6.2772 38.905 6.59709 38.4198 6.57372C38.4198 6.57372 37.8591 6.60607 37.3972 6.13344L37.4008 6.13523Z" fill="white"/>
<path d="M36.9927 5.64102C36.9927 5.64102 37.1688 5.69673 37.2784 5.89441C37.2784 5.89441 37.4437 6.30235 38.0152 6.46588C38.0152 6.46588 38.6101 6.73006 39.2696 6.24664L39.248 6.10287C39.248 6.10287 39.0054 6.36704 38.5759 6.36704C38.5759 6.36704 38.0925 6.37783 38.0925 6.00403C38.0925 6.00403 38.0817 5.8387 38.2794 5.7722C38.2794 5.7722 38.4106 5.72907 38.5328 5.78299C38.5328 5.78299 38.4771 5.58531 38.247 5.57452C38.247 5.57452 37.9505 5.56374 37.884 5.82791C37.884 5.82791 37.8733 6.13522 37.6756 6.10287C37.6756 6.10287 37.5659 6.11365 37.3683 5.88363C37.3683 5.88363 37.2029 5.66438 36.9945 5.64102H36.9927Z" fill="white"/>
<path d="M38.6328 6.32231C38.6328 6.32231 39.0066 6.32231 39.2492 6.04735L39.2277 5.88202C39.2277 5.88202 39.0192 6.23425 38.6328 6.32231Z" fill="white"/>
<path d="M39.2168 5.29788C39.2168 5.29788 39.2384 5.96999 39.3713 6.45341C39.3713 6.45341 39.4271 6.5846 39.5475 6.54147C39.5475 6.54147 39.6571 6.5199 39.6355 6.37614C39.6355 6.37614 39.4918 5.83701 39.4918 5.29608H39.2168V5.29788Z" fill="white"/>
<path d="M39.5371 5.44153L39.6144 5.57272L39.5479 5.66077C39.5479 5.66077 39.5371 5.54037 39.5371 5.44153Z" fill="white"/>
<path d="M39.7245 5.81709C39.7245 5.81709 39.6364 5.79553 39.6148 5.73982C39.6148 5.73982 39.6256 5.70747 39.6813 5.65176L39.6256 5.58527C39.6256 5.58527 39.5591 5.66254 39.5483 5.7506C39.5483 5.7506 39.5699 5.82787 39.6687 5.871L39.7245 5.81529V5.81709Z" fill="white"/>
<path d="M39.5576 5.82806L39.6565 5.89456L39.59 5.9934C39.59 5.9934 39.5684 5.90534 39.5576 5.82806Z" fill="white"/>
<path d="M39.6575 5.71656C39.6575 5.71656 39.6467 5.73813 39.6683 5.75969C39.6683 5.75969 39.7006 5.78126 39.7563 5.78126C39.7563 5.78126 39.7779 5.78126 39.7995 5.75969L39.8767 5.70398C39.8767 5.70398 39.8336 5.72555 39.7671 5.6932C39.7671 5.6932 39.7348 5.66085 39.7006 5.67163C39.7006 5.67163 39.679 5.68242 39.6575 5.71476V5.71656Z" fill="white"/>
<path d="M39.6671 6.36707C39.6671 6.36707 39.6114 6.21251 39.6006 6.04718C39.6006 6.04718 39.7318 5.68417 40.2727 5.61768L40.2835 5.70573C40.2835 5.70573 39.9636 5.78301 39.8216 5.95912C39.8216 5.95912 39.6904 6.10289 39.7012 6.35449L39.6689 6.36527L39.6671 6.36707Z" fill="white"/>
<path d="M39.8752 6.51983C39.8752 6.51983 39.7314 6.50905 39.7314 6.27723C39.7314 6.27723 39.753 6.03462 39.9291 5.90343C39.9291 5.90343 40.0837 5.79381 40.2921 5.7381L40.3029 5.80459C40.3029 5.80459 40.1933 5.83694 40.1268 5.89265C40.1268 5.89265 40.0945 5.93578 40.1484 5.925C40.1484 5.925 40.2364 5.86929 40.3137 5.83694L40.3353 5.90343C40.3353 5.90343 40.1268 6.00227 40.0154 6.15682L39.9723 6.11369C39.9723 6.11369 39.9399 6.10291 39.9507 6.13526C39.9507 6.13526 40.0495 6.19097 40.0388 6.34372C40.0388 6.34372 40.028 6.53062 39.8734 6.51983H39.8752Z" fill="white"/>
<path d="M39.5371 5.29785C39.5371 5.29785 39.5371 5.40927 39.636 5.54046C39.636 5.54046 39.7132 5.66087 39.8893 5.67165C39.8893 5.67165 39.9558 5.67165 40.0762 5.62852C40.0762 5.62852 40.1751 5.58539 40.2631 5.58539V5.4542C40.2631 5.4542 40.1319 5.53147 39.9882 5.53147C39.9882 5.53147 39.7456 5.54226 39.6575 5.29965H39.5371V5.29785Z" fill="white"/>
<path d="M40.2949 5.29409H40.5591C40.5591 5.29409 40.5483 5.61937 40.6472 5.87096C40.6472 5.87096 40.7136 6.00215 40.604 6.05786C40.604 6.05786 40.5052 6.12435 40.4171 6.00215C40.4171 6.00215 40.2967 5.75415 40.2967 5.2923L40.2949 5.29409Z" fill="white"/>
<path d="M40.2506 5.37692V5.42005C40.2506 5.42005 40.141 5.48655 39.9757 5.48655C39.9757 5.48655 39.7672 5.47576 39.6899 5.29785H39.7672C39.7672 5.29785 39.8445 5.44162 40.0206 5.44162C40.0206 5.44162 40.141 5.44162 40.2524 5.37513L40.2506 5.37692Z" fill="white"/>
<path d="M39.7983 5.29962H39.9421C39.9421 5.29962 39.9421 5.33197 39.9852 5.33197H40.2494C40.2494 5.33197 40.1614 5.38768 40.0176 5.39846C40.0176 5.39846 39.863 5.39307 39.7983 5.29962Z" fill="white"/>
<path d="M36.668 5.29418H36.8674L37.0094 5.20612V5.12885L36.668 5.29418Z" fill="white"/>
<path d="M37.0498 5.14502L37.1702 5.29957H37.1145L37.0498 5.21151V5.14502Z" fill="white"/>
<path d="M36.916 5.29965L37.0256 5.23315L37.0706 5.29965H36.916Z" fill="white"/>
<path d="M37.1089 5.16114C37.1089 5.16114 37.4054 5.20427 37.7145 5.1827C37.7145 5.1827 38.0775 5.1827 38.2986 5.08386V5.17192L38.1674 5.27076H37.1987L37.1107 5.16114H37.1089Z" fill="white"/>
<path d="M38.1934 5.29954L38.3048 5.21149V5.29954H38.1934Z" fill="white"/>
<path d="M38.446 5.29954L38.3364 5.21149V5.29954H38.446Z" fill="white"/>
<path d="M38.3364 5.07849V5.16655L38.4802 5.27617H39.1954V5.08927C39.1954 5.08927 39.0085 5.15577 38.6455 5.14498C38.6455 5.14498 38.4478 5.1342 38.3382 5.07849H38.3364Z" fill="white"/>
<path d="M36.6631 4.77111C36.6631 4.77111 36.85 4.84839 37.0261 4.77111C37.0261 4.77111 37.1699 4.69384 37.2453 4.49615L37.3334 4.55186C37.3334 4.55186 37.1465 4.91488 36.938 4.93644C36.938 4.93644 36.7404 4.96879 36.6631 4.77111Z" fill="white"/>
<path d="M37.4008 4.46395C37.4008 4.46395 37.3451 4.55201 37.2912 4.4963C37.2912 4.4963 37.2139 4.39746 37.2912 4.27705C37.2912 4.27705 37.3469 4.21056 37.4008 4.28783C37.4008 4.28783 37.4781 4.33097 37.4332 4.25549C37.4332 4.25549 37.3451 4.14586 37.4439 4.0021C37.4439 4.0021 37.5536 3.85833 37.6758 3.95897C37.6758 3.95897 37.6973 4.0021 37.6973 4.05781C37.6973 4.05781 37.7405 4.09015 37.7405 4.02546C37.7405 4.02546 37.674 3.817 37.9166 3.68401C37.9166 3.68401 38.125 3.57439 38.1915 3.83856C38.1915 3.83856 38.2131 3.90505 38.2347 3.83856C38.2347 3.83856 38.1682 3.53126 38.4773 3.49711C38.4773 3.49711 38.6965 3.46476 38.7414 3.71636C38.7414 3.71636 38.7738 3.78285 38.7846 3.71636C38.7846 3.71636 38.7738 3.35334 39.1925 3.36413C39.1925 3.36413 39.4782 3.37491 39.534 3.63908C39.534 3.63908 39.5663 3.89247 39.3021 3.95897C39.3021 3.95897 39.3902 3.66245 39.1476 3.66245C39.1476 3.66245 39.0164 3.66245 39.0038 3.86013C39.0038 3.86013 38.993 3.99131 39.2123 4.1243L39.3327 4.19079L39.2896 4.32198C39.2896 4.32198 38.905 4.0021 38.4198 4.02546C38.4198 4.02546 37.8591 3.99311 37.3972 4.46575L37.4008 4.46395Z" fill="white"/>
<path d="M36.9927 4.95819C36.9927 4.95819 37.1688 4.90248 37.2784 4.70479C37.2784 4.70479 37.4437 4.29685 38.0152 4.13332C38.0152 4.13332 38.6101 3.86914 39.2696 4.35256L39.248 4.49633C39.248 4.49633 39.0054 4.23216 38.5759 4.23216C38.5759 4.23216 38.0925 4.22138 38.0925 4.59517C38.0925 4.59517 38.0817 4.7605 38.2794 4.827C38.2794 4.827 38.4106 4.87013 38.5328 4.81621C38.5328 4.81621 38.4771 5.0139 38.247 5.02468C38.247 5.02468 37.9505 5.03546 37.884 4.77129C37.884 4.77129 37.8733 4.46398 37.6756 4.49633C37.6756 4.49633 37.5659 4.48555 37.3683 4.71558C37.3683 4.71558 37.2029 4.93482 36.9945 4.95819H36.9927Z" fill="white"/>
<path d="M38.6328 4.27527C38.6328 4.27527 39.0066 4.27527 39.2492 4.55022L39.2277 4.71556C39.2277 4.71556 39.0192 4.36333 38.6328 4.27527Z" fill="white"/>
<path d="M39.2168 5.29786C39.2168 5.29786 39.2384 4.62754 39.3713 4.14412C39.3713 4.14412 39.4271 4.01294 39.5475 4.05607C39.5475 4.05607 39.6571 4.07763 39.6355 4.2214C39.6355 4.2214 39.4918 4.76053 39.4918 5.29786H39.2168Z" fill="white"/>
<path d="M39.5371 5.15583L39.6144 5.02464L39.5479 4.93658C39.5479 4.93658 39.5371 5.05699 39.5371 5.15583Z" fill="white"/>
<path d="M39.7245 4.78212C39.7245 4.78212 39.6364 4.80369 39.6148 4.8594C39.6148 4.8594 39.6256 4.89175 39.6813 4.94746L39.6256 5.01395C39.6256 5.01395 39.5591 4.93667 39.5483 4.84862C39.5483 4.84862 39.5699 4.77134 39.6687 4.72821L39.7245 4.78392V4.78212Z" fill="white"/>
<path d="M39.5576 4.77135L39.6565 4.70486L39.59 4.60602C39.59 4.60602 39.5684 4.69408 39.5576 4.77135Z" fill="white"/>
<path d="M39.6575 4.88092C39.6575 4.88092 39.6467 4.85935 39.6683 4.83779C39.6683 4.83779 39.7006 4.81622 39.7563 4.81622C39.7563 4.81622 39.7779 4.81622 39.7995 4.83779L39.8767 4.8935C39.8767 4.8935 39.8336 4.87193 39.7671 4.90428C39.7671 4.90428 39.7348 4.93663 39.7006 4.92585C39.7006 4.92585 39.679 4.91506 39.6575 4.88272V4.88092Z" fill="white"/>
<path d="M39.6671 4.23224C39.6671 4.23224 39.6114 4.38679 39.6006 4.55212C39.6006 4.55212 39.7318 4.91514 40.2727 4.98163L40.2835 4.89357C40.2835 4.89357 39.9636 4.8163 39.8216 4.64018C39.8216 4.64018 39.6904 4.49641 39.7012 4.24482L39.6689 4.23404L39.6671 4.23224Z" fill="white"/>
<path d="M39.8752 4.07766C39.8752 4.07766 39.7314 4.08844 39.7314 4.32027C39.7314 4.32027 39.753 4.56287 39.9291 4.69406C39.9291 4.69406 40.0837 4.80369 40.2921 4.8594L40.3029 4.7929C40.3029 4.7929 40.1933 4.76056 40.1268 4.70485C40.1268 4.70485 40.0945 4.66172 40.1484 4.6725C40.1484 4.6725 40.2364 4.72821 40.3137 4.76056L40.3353 4.69406C40.3353 4.69406 40.1268 4.59522 40.0154 4.44067L39.9723 4.4838C39.9723 4.4838 39.9399 4.49459 39.9507 4.46224C39.9507 4.46224 40.0495 4.40653 40.0388 4.25377C40.0388 4.25377 40.028 4.06688 39.8734 4.07766H39.8752Z" fill="white"/>
<path d="M39.5371 5.29784C39.5371 5.29784 39.5371 5.18822 39.636 5.05703C39.636 5.05703 39.7132 4.93662 39.8893 4.92584C39.8893 4.92584 39.9558 4.92584 40.0762 4.96897C40.0762 4.96897 40.1751 5.0121 40.2631 5.0121V5.14329C40.2631 5.14329 40.1319 5.06602 39.9882 5.06602C39.9882 5.06602 39.7456 5.05523 39.6575 5.29604H39.5371V5.29784Z" fill="white"/>
<path d="M40.2949 5.30483H40.5591C40.5591 5.30483 40.5483 4.98136 40.6472 4.72797C40.6472 4.72797 40.7136 4.59678 40.604 4.54107C40.604 4.54107 40.5052 4.47458 40.4171 4.59678C40.4171 4.59678 40.2967 4.84478 40.2967 5.30663L40.2949 5.30483Z" fill="white"/>
<path d="M40.251 5.22235V5.17922C40.251 5.17922 40.1413 5.11273 39.976 5.11273C39.976 5.11273 39.7675 5.12351 39.6885 5.29783H39.7658C39.7658 5.29783 39.843 5.15586 40.0191 5.15586C40.0191 5.15586 40.1395 5.15586 40.251 5.22235Z" fill="white"/>
<path d="M39.8001 5.29955H39.9439C39.9439 5.29955 39.9439 5.26541 39.987 5.26541H40.2512C40.2512 5.26541 40.1631 5.2097 40.0194 5.19891C40.0194 5.19891 39.8648 5.2097 39.7983 5.29775L39.8001 5.29955Z" fill="white"/>
<path d="M41.9576 6.42999C42.6186 6.42999 43.1545 5.89413 43.1545 5.23312C43.1545 4.57211 42.6186 4.03625 41.9576 4.03625C41.2966 4.03625 40.7607 4.57211 40.7607 5.23312C40.7607 5.89413 41.2966 6.42999 41.9576 6.42999Z" fill="white"/>
</svg>
